<svg _ngcontent-ng-c1591630683="" xmlns="http://www.w3.org/2000/svg" width="20" height="20" viewBox="0 0 20 20"><path _ngcontent-ng-c1591630683="" fill="currentColor" fill-rule="nonzero" d="M19.314 6.38c-.41-1.052-.987-2.018-1.708-2.862-1.49-1.75-3.574-2.97-5.94-3.368C11.125.06 10.57 0 10 0c-.57 0-1.124.06-1.667.15-2.365.398-4.447 1.62-5.94 3.367-.72.845-1.297 1.81-1.707 2.863C.25 7.504 0 8.722 0 10c0 1.175.213 2.297.585 3.344.38 1.066.927 2.05 1.62 2.914 1.503 1.868 3.662 3.178 6.128 3.592.543.09 1.098.15 1.667.15.57 0 1.124-.06 1.667-.15 2.466-.414 4.625-1.724 6.127-3.592.694-.864 1.242-1.848 1.62-2.913.373-1.047.586-2.17.586-3.345 0-1.278-.25-2.496-.686-3.62zm-1.173.678l-1.747 1.01c-.332-1.095-.937-2.07-1.735-2.848l1.764-1.02c.746.826 1.333 1.793 1.72 2.858zM15.348 10c0 2.948-2.398 5.347-5.347 5.347-2.95 0-5.347-2.4-5.347-5.347 0-2.948 2.398-5.347 5.347-5.347 2.95 0 5.347 2.4 5.347 5.347zM10 1.333c.57 0 1.127.06 1.667.165v2.04c-.534-.137-1.09-.218-1.667-.218-.576 0-1.133.08-1.667.22V1.497c.54-.106 1.097-.165 1.667-.165zM3.578 4.2l1.765 1.02c-.8.778-1.404 1.753-1.736 2.847L1.86 7.057c.385-1.065.973-2.03 1.718-2.856zm-1.82 8.467l1.775-1.024c.282 1.112.84 2.11 1.604 2.923L3.38 15.58c-.717-.848-1.272-1.834-1.622-2.913zm8.242 6c-.57 0-1.127-.06-1.667-.165v-2.04c.534.137 1.09.218 1.667.218.576 0 1.133-.08 1.667-.22v2.042c-.54.106-1.097.165-1.667.165zm6.62-3.087l-1.757-1.014c.763-.81 1.322-1.81 1.604-2.923l1.775 1.025c-.35 1.078-.905 2.064-1.622 2.912zm-6.003-6.325c1.174.418 1.647.966 1.647 1.862 0 .887-.62 1.644-1.755 1.843v.514c0 .27-.218.488-.485.488s-.483-.218-.483-.488v-.444c-.39-.018-.772-.088-1.098-.187-.332-.1-.526-.448-.44-.787l.005-.017c.035-.145.13-.265.258-.335.13-.07.28-.08.42-.03.328.117.708.2 1.11.2.563 0 .947-.22.947-.618 0-.38-.315-.618-1.045-.867-1.056-.358-1.775-.856-1.775-1.822 0-.877.61-1.564 1.667-1.773v-.458c0-.285.24-.513.53-.486.25.025.436.247.436.5v.375c.347.016.634.062.875.125.315.082.504.406.423.723l-.01.034c-.034.14-.124.258-.248.328s-.27.086-.407.043c-.238-.075-.538-.137-.908-.137-.642 0-.848.28-.848.56 0 .327.344.536 1.183.855z"></path></svg>